<?xml version="1.0" encoding="UTF-8" standalone="no"?>
<!-- Generator: Adobe Illustrator 18.0.0, SVG Export Plug-In . SVG Version: 6.00 Build 0)  -->

<svg
   xmlns:dc="http://purl.org/dc/elements/1.1/"
   xmlns:cc="http://creativecommons.org/ns#"
   xmlns:rdf="http://www.w3.org/1999/02/22-rdf-syntax-ns#"
   xmlns:svg="http://www.w3.org/2000/svg"
   xmlns="http://www.w3.org/2000/svg"
   xmlns:xlink="http://www.w3.org/1999/xlink"
   xmlns:sodipodi="http://sodipodi.sourceforge.net/DTD/sodipodi-0.dtd"
   xmlns:inkscape="http://www.inkscape.org/namespaces/inkscape"
   version="1.1"
   id="Calque_1"
   x="0px"
   y="0px"
   viewBox="0 0 1052.3622 744.09447"
   enable-background="new 0 0 200 72.4"
   xml:space="preserve"
   inkscape:version="0.91 r13725"
   sodipodi:docname="Oxiane-logo-blanc.svg"
   width="297mm"
   height="210mm"
   inkscape:export-filename="P:\Communication\Logo Oxiane\Oxiane-logo-blanc.png"
   inkscape:export-xdpi="299.82181"
   inkscape:export-ydpi="299.82181"><metadata
     id="metadata41"><rdf:RDF><cc:Work
         rdf:about=""><dc:format>image/svg+xml</dc:format><dc:type
           rdf:resource="http://purl.org/dc/dcmitype/StillImage" /><dc:title></dc:title></cc:Work></rdf:RDF></metadata><defs
     id="defs39"><defs
       id="defs5"><rect
         height="40.299999"
         width="149.60001"
         y="17.299999"
         x="27.6"
         id="SVGID_1_" /></defs><clipPath
       id="SVGID_2_"><use
         height="100%"
         width="100%"
         y="0"
         x="0"
         style="overflow:visible"
         id="use9"
         overflow="visible"
         xlink:href="#SVGID_1_" /></clipPath><defs
       id="defs13"><rect
         id="SVGID_3_"
         x="27.6"
         y="17.299999"
         width="149.60001"
         height="40.299999" /></defs><clipPath
       id="SVGID_4_"><use
         xlink:href="#SVGID_3_"
         overflow="visible"
         id="use17"
         style="overflow:visible"
         x="0"
         y="0"
         width="100%"
         height="100%" /></clipPath></defs><sodipodi:namedview
     pagecolor="#2155aa"
     bordercolor="#666666"
     borderopacity="1"
     objecttolerance="10"
     gridtolerance="10"
     guidetolerance="10"
     inkscape:pageopacity="0"
     inkscape:pageshadow="2"
     inkscape:window-width="1536"
     inkscape:window-height="801"
     id="namedview37"
     showgrid="false"
     units="mm"
     inkscape:zoom="0.62932504"
     inkscape:cx="295.75417"
     inkscape:cy="351.83156"
     inkscape:window-x="-8"
     inkscape:window-y="-8"
     inkscape:window-maximized="1"
     inkscape:current-layer="Calque_1" /><g
     id="g4220"><path
       transform="matrix(4.737305,0,0,4.737305,-51.05226,-6.9981)"
       inkscape:connector-curvature="0"
       style="fill:#ffffff"
       id="path19"
       d="m 177.3,42.7 c 0,1.4 -0.1,2.7 -0.2,3.4 L 162.5,46 c 0.2,3.6 3.1,5.2 6.4,5.2 2.4,0 4.3,-0.4 6.2,-1.2 l 0.9,5.7 c -2.3,1.2 -5.1,1.7 -8.2,1.7 -7.7,0 -12.1,-5.3 -12.1,-13.9 0,-6.9 3.6,-14.5 11.4,-14.5 7.4,0.1 10.2,7 10.2,13.7 m -14.9,-2.5 8.3,0 c 0,-2 -0.7,-5.5 -3.9,-5.5 -3,0.1 -4.2,3.3 -4.4,5.5"
       clip-path="url(#SVGID_4_)" /><path
       transform="matrix(4.737305,0,0,4.737305,-51.05226,-6.9981)"
       inkscape:connector-curvature="0"
       style="fill:#ffffff"
       id="path21"
       d="m 152.6,40.9 0,16 -7,0 0,-15 c 0,-3.5 -1,-5.9 -3.6,-5.9 -1.9,0 -3.1,1.6 -3.6,3.2 -0.2,0.6 -0.2,1.3 -0.2,2.1 l 0,15.7 -7,0 0,-18.5 c 0,-3.4 -0.1,-6.2 -0.2,-8.7 l 6.1,0 0.3,3.8 0.1,0 c 0.9,-1.8 3.2,-4.4 7,-4.4 4.6,0 8.1,3.7 8.1,11.7"
       clip-path="url(#SVGID_4_)" /><path
       transform="matrix(4.737305,0,0,4.737305,-51.05226,-6.9981)"
       inkscape:connector-curvature="0"
       style="fill:#ffffff"
       id="path23"
       d="m 127.1,57 -6.3,0 -0.4,-2.7 -0.1,0 c -1.5,2.2 -3.8,3.3 -6.5,3.3 -4.6,0 -7.3,-4 -7.3,-8.3 0,-7 5.3,-10.4 13.3,-10.4 l 0,-0.3 c 0,-1.4 -0.6,-3.5 -4.1,-3.5 -2.3,0 -4.8,0.9 -6.2,2 l -1.3,-5.4 c 1.6,-1.1 4.7,-2.4 8.8,-2.4 7.5,0 9.9,5.3 9.9,11.7 l 0,9.5 c -0.2,2.5 -0.1,5 0.2,6.5 m -7.2,-9.9 0,-2.9 c -3.7,0 -6.6,1.1 -6.6,4.3 0,2.2 1.2,3.2 2.8,3.2 1.7,0 3.2,-1.4 3.7,-3.1 0,-0.5 0.1,-1 0.1,-1.5"
       clip-path="url(#SVGID_4_)" /><rect
       transform="matrix(4.737305,0,0,4.737305,-51.05226,-6.9981)"
       style="fill:#ffffff"
       id="rect25"
       height="27.1"
       width="7"
       clip-path="url(#SVGID_4_)"
       y="29.799999"
       x="96.400002" /><path
       transform="matrix(4.737305,0,0,4.737305,-51.05226,-6.9981)"
       inkscape:connector-curvature="0"
       style="fill:#ffffff"
       id="path27"
       d="m 103.8,21.8 c 0,2.5 -1.5,4.5 -4,4.5 l 0,0 c -2.4,0 -3.9,-2 -3.9,-4.5 0,-2.6 1.6,-4.5 4,-4.5 2.4,0 3.9,1.9 3.9,4.5"
       clip-path="url(#SVGID_4_)" /><path
       transform="matrix(4.737305,0,0,4.737305,-51.05226,-6.9981)"
       inkscape:connector-curvature="0"
       style="fill:#ffffff"
       id="path29"
       d="m 93.5,21.2 0,31.8 c 0,2.2 -1.7,3.9 -3.8,3.9 l -58.3,0 c -2.1,0 -3.8,-1.8 -3.8,-3.9 l 0,-31.8 c 0,-2.2 1.7,-3.9 3.8,-3.9 l 58.3,0 c 2.1,0 3.8,1.7 3.8,3.9 m -3,32.5 -11.1,-17.2 10,-15.3 -10.6,0 -4.6,8.8 -4.7,-8.8 -11.3,0 10.2,15.2 -11.2,17.3 11,0 5.5,-9.7 5.3,9.7 11.5,0 z M 62.7,37.5 c 0,-9.9 -6.3,-17 -15.8,-17 -9.5,0 -15.8,7.1 -15.8,17 0,9.9 6.3,17 15.8,17 9.5,0 15.8,-7.1 15.8,-17"
       clip-path="url(#SVGID_4_)" /><polygon
       transform="matrix(4.737305,0,0,4.737305,-51.05226,-6.9981)"
       style="fill:none;fill-opacity:1"
       id="polygon31"
       points="79,53.7 73.7,44 68.2,53.7 57.2,53.7 68.5,36.4 58.2,21.2 69.5,21.2 74.2,30 78.8,21.2 89.4,21.2 79.4,36.5 90.5,53.7 "
       clip-path="url(#SVGID_4_)" /><path
       transform="matrix(4.737305,0,0,4.737305,-51.05226,-6.9981)"
       inkscape:connector-curvature="0"
       style="fill:none;fill-opacity:1"
       id="path33"
       d="m 46.9,20.4 c 9.5,0 15.8,7.1 15.8,17 0,9.9 -6.3,17 -15.8,17 -9.5,0 -15.8,-7.1 -15.8,-17 0.1,-9.9 6.4,-17 15.8,-17 m 6.2,17.1 c 0,-7.2 -3.7,-8.9 -6.2,-8.9 -2.4,0 -6.2,1.7 -6.2,8.9 0,7.2 3.7,8.9 6.2,8.9 2.5,0 6.2,-1.7 6.2,-8.9"
       clip-path="url(#SVGID_4_)" /><path
       transform="matrix(4.737305,0,0,4.737305,-51.05226,-6.9981)"
       inkscape:connector-curvature="0"
       style="fill:#ffffff"
       id="path35"
       d="m 46.9,28.5 c 2.4,0 6.2,1.7 6.2,8.9 0,7.2 -3.7,8.9 -6.2,8.9 -2.4,0 -6.2,-1.7 -6.2,-8.9 0.1,-7.2 3.8,-8.9 6.2,-8.9"
       clip-path="url(#SVGID_4_)" /></g></svg>